<svg width="322" height="261" viewBox="0 0 322 261" fill="none" xmlns="http://www.w3.org/2000/svg">
<path d="M321.861 231.93H0V232.09H321.861V231.93Z" fill="#EBEBEB"/>
<path d="M289.61 242.287H268.29V242.448H289.61V242.287Z" fill="#EBEBEB"/>
<path d="M175.878 240.272H167.58V240.433H175.878V240.272Z" fill="#EBEBEB"/>
<path d="M225.09 240.955H207.62V241.116H225.09V240.955Z" fill="#EBEBEB"/>
<path d="M267.647 236.313H231.527V236.474H267.647V236.313Z" fill="#EBEBEB"/>
<path d="M50.8476 243.761H33.7697V243.922H50.8476V243.761Z" fill="#EBEBEB"/>
<path d="M71.3823 243.761H56.5767V243.922H71.3823V243.761Z" fill="#EBEBEB"/>
<path d="M123.472 240.195H84.3275V240.356H123.472V240.195Z" fill="#EBEBEB"/>
<path d="M152.562 203.22H28.2658C27.292 203.218 26.3588 202.83 25.6709 202.141C24.9829 201.452 24.5966 200.518 24.5966 199.544V24.8185C24.605 23.8504 24.9951 22.9247 25.6822 22.2425C26.3692 21.5603 27.2976 21.1767 28.2658 21.175H152.562C153.537 21.175 154.472 21.5623 155.161 22.2516C155.85 22.9409 156.238 23.8759 156.238 24.8507V199.544C156.238 200.519 155.85 201.454 155.161 202.143C154.472 202.832 153.537 203.22 152.562 203.22V203.22ZM28.2658 21.3038C27.3347 21.3055 26.4424 21.6765 25.7846 22.3355C25.1269 22.9945 24.7575 23.8875 24.7575 24.8185V199.544C24.7575 200.475 25.1269 201.368 25.7846 202.027C26.4424 202.686 27.3347 203.057 28.2658 203.059H152.562C153.494 203.057 154.387 202.686 155.045 202.027C155.704 201.369 156.075 200.476 156.077 199.544V24.8185C156.075 23.8869 155.704 22.9939 155.045 22.3351C154.387 21.6763 153.494 21.3055 152.562 21.3038H28.2658Z" fill="#EBEBEB"/>
<path d="M291.805 203.22H167.503C166.528 203.218 165.595 202.83 164.906 202.141C164.217 201.452 163.829 200.518 163.827 199.544V24.8185C163.837 23.8498 164.229 22.9241 164.917 22.2421C165.605 21.5601 166.534 21.1767 167.503 21.175H291.805C292.772 21.1784 293.699 21.5627 294.385 22.2447C295.071 22.9267 295.46 23.8515 295.468 24.8185V199.544C295.468 200.516 295.083 201.449 294.396 202.138C293.71 202.827 292.778 203.216 291.805 203.22V203.22ZM167.503 21.3038C166.571 21.3055 165.678 21.6763 165.019 22.3351C164.361 22.9939 163.99 23.8869 163.988 24.8185V199.544C163.99 200.476 164.361 201.369 165.019 202.027C165.678 202.686 166.571 203.057 167.503 203.059H291.805C292.737 203.057 293.63 202.686 294.289 202.027C294.948 201.369 295.318 200.476 295.32 199.544V24.8185C295.318 23.8869 294.948 22.9939 294.289 22.3351C293.63 21.6763 292.737 21.3055 291.805 21.3038H167.503Z" fill="#EBEBEB"/>
<path d="M300.657 110.762C302.674 103.788 302.449 96.3574 300.013 89.519C302.6 85.8159 304.315 81.5752 305.029 77.1149C305.744 72.6546 305.44 68.0904 304.139 63.7645C302.838 59.4386 300.575 55.4632 297.52 52.1364C294.464 48.8096 290.695 46.2177 286.495 44.5551C285.267 35.7013 281.762 27.3178 276.323 20.2242C270.884 13.1307 263.698 7.56994 255.466 4.0857C247.235 0.601464 238.24 -0.686996 229.361 0.346303C220.483 1.3796 212.024 4.69929 204.813 9.98078C201.188 6.17443 196.51 3.53703 191.377 2.4065C186.244 1.27598 180.89 1.70383 176.002 3.63524C171.113 5.56665 166.913 8.91364 163.939 13.2473C160.965 17.581 159.352 22.704 159.308 27.9599C152.516 29.3224 146.196 32.4318 140.972 36.9815C135.748 41.5312 131.8 47.3641 129.518 53.9048C127.236 60.4455 126.698 67.4682 127.958 74.2802C129.217 81.0922 132.231 87.4583 136.701 92.7505C134.514 96.6931 133.245 101.078 132.987 105.579C132.729 110.08 133.489 114.581 135.21 118.748C136.931 122.914 139.57 126.639 142.93 129.646C146.29 132.652 150.284 134.862 154.615 136.112C159.672 137.577 165.027 137.679 170.136 136.408C177.06 145.95 187.362 152.492 198.943 154.7C210.524 156.908 222.511 154.616 232.461 148.291C237.308 159.549 241.286 176.441 232.718 193.004C263.842 189.952 286.314 160.103 281.731 132.751C286.283 130.665 290.331 127.621 293.598 123.825C296.864 120.03 299.272 115.574 300.657 110.762V110.762Z" fill="#EBEBEB"/>
<path d="M240.958 186.824C240.873 186.824 240.789 186.808 240.711 186.776C240.632 186.744 240.561 186.697 240.501 186.637C240.418 186.555 240.359 186.451 240.331 186.338C240.303 186.224 240.306 186.105 240.34 185.994C244.724 170.724 240.726 156.086 236.606 146.495L234.514 141.635L230.047 144.473C221.07 150.182 210.254 152.252 199.803 150.262C189.353 148.271 180.055 142.371 173.805 133.762L172.015 131.297L169.067 132.03C164.25 133.229 159.188 132.994 154.503 131.354C149.817 129.714 145.714 126.74 142.696 122.799C139.679 118.857 137.879 114.12 137.518 109.169C137.158 104.218 138.252 99.2699 140.666 94.9327L142.166 92.2162L140.164 89.8473C136.198 85.1547 133.523 79.5093 132.404 73.4679C131.285 67.4264 131.76 61.1976 133.782 55.3958C135.805 49.5939 139.304 44.4194 143.936 40.3826C148.568 36.3458 154.173 33.5862 160.197 32.3758L163.776 31.6548L163.814 28.0114C163.847 23.6506 165.182 19.3991 167.648 15.8022C170.114 12.2053 173.598 9.42695 177.653 7.82358C181.709 6.22021 186.151 5.8649 190.409 6.80322C194.668 7.74153 198.549 9.93069 201.556 13.0899L204.285 15.948L207.504 13.6178C214.084 8.79063 221.806 5.75475 229.912 4.8072C238.018 3.85966 246.231 5.03293 253.748 8.21219C261.265 11.3915 267.827 16.4678 272.793 22.9444C277.759 29.421 280.959 37.0759 282.079 45.1601L282.446 47.735L284.885 48.7006C288.453 50.1128 291.654 52.3147 294.249 55.1411C296.844 57.9674 298.765 61.3447 299.869 65.0196C300.972 68.6945 301.228 72.5716 300.619 76.3598C300.009 80.148 298.55 83.749 296.35 86.8926L295.024 88.7916L295.803 90.9802C298.339 98.1202 298.108 105.951 295.155 112.929C292.202 119.907 286.742 125.525 279.851 128.677L276.717 130.118L277.289 133.517C279.221 145.188 275.725 157.934 267.634 168.491C260.953 177.244 251.674 183.659 241.125 186.817C241.07 186.828 241.014 186.83 240.958 186.824ZM234.81 140.058C234.872 140.048 234.935 140.048 234.997 140.058C235.086 140.085 235.167 140.132 235.236 140.194C235.305 140.256 235.359 140.333 235.396 140.418L237.784 145.967C241.891 155.513 245.863 169.971 241.885 185.189C251.72 181.991 260.348 175.875 266.623 167.654C274.489 157.354 277.914 144.995 276.021 133.678L275.378 129.816C275.353 129.677 275.375 129.533 275.44 129.407C275.505 129.282 275.61 129.181 275.738 129.121L279.317 127.479C285.902 124.461 291.119 119.087 293.941 112.416C296.763 105.744 296.987 98.2585 294.567 91.4308L293.679 88.9332C293.645 88.836 293.635 88.732 293.649 88.6301C293.664 88.5282 293.703 88.4312 293.762 88.3474L295.275 86.1716C297.364 83.1881 298.751 79.77 299.33 76.1739C299.909 72.5779 299.666 68.8974 298.62 65.4086C297.573 61.9199 295.749 58.7137 293.286 56.0307C290.822 53.3476 287.783 51.2575 284.396 49.9172L281.602 48.81C281.497 48.768 281.404 48.6988 281.334 48.6095C281.264 48.5202 281.219 48.4139 281.203 48.3015L280.785 45.3339C279.7 37.4672 276.59 30.0173 271.759 23.7141C266.929 17.411 260.544 12.4708 253.23 9.37777C245.916 6.2847 237.923 5.14479 230.036 6.06975C222.149 6.9947 214.637 9.95278 208.237 14.6542L204.588 17.3127C204.462 17.4048 204.308 17.4484 204.153 17.4354C203.998 17.4223 203.853 17.3536 203.744 17.2419L200.622 13.9782C198.694 11.9672 196.38 10.3662 193.818 9.27109C191.256 8.17602 188.5 7.60947 185.714 7.6054C180.283 7.60518 175.071 9.74979 171.213 13.5726C167.356 17.3954 165.164 22.587 165.115 28.0178L165.069 32.1891C165.073 32.3397 165.023 32.4866 164.929 32.6042C164.834 32.7219 164.702 32.8028 164.555 32.8329L160.467 33.6568C154.665 34.8236 149.267 37.482 144.806 41.3701C140.344 45.2581 136.972 50.2416 135.023 55.8294C133.074 61.4172 132.614 67.4165 133.69 73.2361C134.765 79.0556 137.338 84.4945 141.155 89.0169L143.44 91.7269C143.525 91.8267 143.576 91.9497 143.589 92.0796C143.602 92.2095 143.575 92.3402 143.511 92.4543L141.799 95.5571C140.914 97.1495 140.211 98.8358 139.7 100.585C138.523 104.666 138.44 108.985 139.461 113.108C140.482 117.231 142.57 121.013 145.515 124.073C148.461 127.134 152.16 129.365 156.241 130.542C160.322 131.72 164.641 131.802 168.764 130.782L172.138 129.945C172.262 129.914 172.392 129.92 172.513 129.964C172.633 130.007 172.738 130.086 172.813 130.189L174.854 133.002C180.905 141.36 189.92 147.091 200.056 149.023C210.191 150.955 220.682 148.943 229.384 143.398L234.488 140.18C234.583 140.111 234.694 140.068 234.81 140.058V140.058Z" fill="white"/>
<path d="M195.814 79.8761L178.562 77.1789L178.826 75.4537C179.128 73.0184 179.842 70.6523 180.937 68.4565C181.898 66.7183 183.173 65.1731 184.697 63.8989C186.246 62.6115 189.619 60.4099 194.816 57.2943C197.578 55.6722 199.09 54.0371 199.322 52.3699C199.475 51.6617 199.476 50.9293 199.326 50.2205C199.177 49.5117 198.879 48.8424 198.453 48.2565C197.616 47.1815 196.193 46.4862 194.198 46.1773C193.215 45.9906 192.204 46.0086 191.228 46.2301C190.252 46.4517 189.333 46.8719 188.527 47.4647C186.896 48.6706 185.609 51.0138 184.664 54.4941L167.387 49.5697C169.001 43.1882 172.168 38.341 176.888 35.028C181.609 31.715 188.205 30.7194 196.676 32.0411C203.277 33.0668 208.39 35.2726 212.016 38.6586C216.943 43.2419 218.923 48.6363 217.958 54.8418C217.525 57.4572 216.388 59.9053 214.668 61.9227C212.874 64.0942 209.512 66.5618 204.581 69.3255C201.148 71.2781 198.916 72.9239 197.886 74.2628C196.735 75.93 196.022 77.8606 195.814 79.8761ZM177.255 81.6849L195.736 84.5624L193.2 100.861L174.719 97.984L177.255 81.6849Z" fill="white"/>
<path d="M239.844 105.129L230.266 97.4046L231.045 96.4455C232.092 95.0679 233.366 93.8774 234.81 92.9243C236.013 92.2072 237.338 91.7163 238.718 91.476C241.546 91.1464 244.393 90.998 247.241 91.0318C249.498 91.0318 251 90.5662 251.747 89.6349C252.094 89.2586 252.356 88.8122 252.516 88.3258C252.676 87.8394 252.73 87.3243 252.674 86.8154C252.433 85.6841 251.767 84.6884 250.813 84.0345C250.279 83.573 249.655 83.2271 248.98 83.0188C248.305 82.8105 247.595 82.7443 246.893 82.8244C245.468 82.9788 243.852 83.9509 242.046 85.7404L233.246 76.606C236.49 73.2844 240.138 71.4498 244.189 71.1022C248.24 70.7546 252.622 72.4862 257.334 76.297C260.999 79.2624 263.336 82.4231 264.344 85.779C265.726 90.3237 265.024 94.3169 262.239 97.7587C261.054 99.2086 259.496 100.308 257.733 100.939C255.866 101.621 252.94 101.934 248.953 101.879C246.166 101.879 244.222 102.059 243.114 102.522C241.827 103.11 240.704 104.005 239.844 105.129ZM227.877 99.6512L238.138 107.962L230.806 117.012L220.545 108.721L227.877 99.6512Z" fill="white"/>
<path d="M242.522 49.3702L238.377 43.7054L238.943 43.287C239.719 42.6846 240.589 42.2147 241.518 41.8966C242.285 41.6757 243.086 41.5993 243.88 41.6712C245.484 41.8963 247.071 42.2275 248.631 42.6626C249.88 42.9844 250.775 42.9458 251.322 42.5467C251.566 42.3888 251.775 42.181 251.933 41.937C252.092 41.6929 252.197 41.4181 252.242 41.1305C252.267 40.4693 252.037 39.8239 251.599 39.3281C251.37 38.9976 251.076 38.7174 250.735 38.5049C250.394 38.2923 250.013 38.1518 249.616 38.0922C248.811 37.9763 247.781 38.2724 246.526 38.9934L243.005 32.6913C245.025 31.3839 247.458 30.8703 249.835 31.2494C252.118 31.6485 254.279 33.2364 256.317 36.0129C257.901 38.1844 258.729 40.2636 258.802 42.2506C258.905 43.4615 258.691 44.6784 258.182 45.782C257.673 46.8856 256.886 47.8381 255.899 48.5462C255.043 49.1677 254.036 49.5459 252.983 49.6405C251.295 49.6738 249.615 49.4191 248.013 48.8874C246.949 48.5248 245.828 48.3547 244.704 48.3853C243.907 48.5278 243.157 48.8662 242.522 49.3702V49.3702ZM236.729 44.6195L241.17 50.6833L235.821 54.5972L231.379 48.5398L236.729 44.6195Z" fill="white"/>
<path d="M82.6153 129.687C77.1739 129.678 71.8362 128.199 67.1659 125.406C60.6322 121.544 56.0167 115.48 54.446 108.805C49.8907 108.487 45.6088 106.515 42.4074 103.259C39.2059 100.003 37.3059 95.6882 37.0655 91.1282C35.6942 90.1768 34.4819 89.0144 33.4735 87.6843C31.0243 84.5633 29.8141 80.6475 30.0755 76.6888C30.3369 72.7301 32.0514 69.0074 34.8897 66.2355C33.8127 61.6584 33.9261 56.8816 35.2192 52.3608C36.5124 47.8399 38.9421 43.7257 42.2767 40.4104C45.6113 37.0952 49.7396 34.6895 54.2679 33.4227C58.7962 32.1559 63.5736 32.0703 68.1444 33.174C69.1416 30.8963 70.7144 28.9172 72.7081 27.4314C74.7018 25.9456 77.0478 25.0042 79.5155 24.6996C81.9832 24.395 84.4877 24.7378 86.7829 25.6943C89.078 26.6508 91.0847 28.188 92.6058 30.1549C93.3118 31.0679 93.9061 32.062 94.3761 33.1161C97.9752 32.5246 101.666 32.8653 105.096 34.1055C108.526 35.3458 111.581 37.4443 113.969 40.2008C116.358 42.9573 118 46.2798 118.74 49.8515C119.479 53.4231 119.291 57.1247 118.194 60.603C120.55 62.6104 122.282 65.2512 123.184 68.2126C124.086 71.1739 124.121 74.3318 123.284 77.3122C122.446 80.2925 120.773 82.9705 118.46 85.0289C116.148 87.0874 113.295 88.44 110.237 88.9267C108.858 94.1448 105.794 98.7612 101.521 102.059C98.8321 104.146 95.7411 105.657 92.4417 106.497C89.1422 107.336 85.705 107.487 82.3449 106.938C82.2805 113.189 83.7289 121.666 90.7133 127.73C90.7807 127.791 90.831 127.867 90.8593 127.953C90.8875 128.039 90.8927 128.131 90.8742 128.219C90.855 128.308 90.8119 128.39 90.7494 128.456C90.687 128.522 90.6077 128.569 90.5202 128.593C87.9499 129.328 85.2886 129.696 82.6153 129.687V129.687ZM61.6235 33.4057C57.6062 33.418 53.6442 34.3423 50.0362 36.1088C46.4282 37.8754 43.2684 40.4381 40.7952 43.6038C38.3219 46.7695 36.5997 50.4554 35.7585 54.3836C34.9173 58.3118 34.979 62.3797 35.939 66.2806C35.9611 66.3679 35.959 66.4596 35.9329 66.5458C35.9068 66.632 35.8577 66.7094 35.7909 66.7698C33.0421 69.3494 31.3585 72.8645 31.0713 76.6233C30.7842 80.382 31.9145 84.112 34.2396 87.0792C35.2621 88.3929 36.4929 89.5302 37.883 90.4459C37.9504 90.4894 38.0065 90.5483 38.0468 90.6177C38.0871 90.687 38.1104 90.7649 38.1148 90.845C38.2893 95.2605 40.1094 99.4509 43.2174 102.592C46.3253 105.734 50.4961 107.598 54.9095 107.82C55.0199 107.826 55.1252 107.869 55.209 107.941C55.2928 108.013 55.3504 108.111 55.373 108.219C56.7956 114.766 61.2952 120.714 67.7067 124.537C74.2029 128.455 81.9851 129.645 89.355 127.846C82.4479 121.409 81.1604 112.616 81.3278 106.307C81.3305 106.234 81.3487 106.162 81.3813 106.097C81.4138 106.031 81.4599 105.974 81.5166 105.927C81.5732 105.881 81.6391 105.847 81.7097 105.828C81.7804 105.81 81.8543 105.806 81.9265 105.818C87.8607 106.94 93.9996 105.756 99.0907 102.507C104.182 99.2583 107.842 94.1894 109.323 88.3345C109.346 88.2361 109.398 88.147 109.473 88.0791C109.548 88.0113 109.642 87.9678 109.742 87.9547C112.67 87.5499 115.416 86.2994 117.644 84.3565C119.871 82.4135 121.484 79.8627 122.282 77.0168C123.081 74.1709 123.032 71.1537 122.141 68.3353C121.251 65.5168 119.556 63.0197 117.267 61.1501C117.188 61.086 117.13 60.9994 117.101 60.9016C117.072 60.8039 117.074 60.6997 117.106 60.603C118.226 57.2484 118.451 53.6597 117.761 50.1913C117.07 46.7229 115.486 43.4945 113.166 40.8251C110.847 38.1556 107.871 36.1373 104.533 34.9694C101.194 33.8015 97.6094 33.5243 94.1314 34.1653C94.0175 34.1874 93.8994 34.1693 93.7973 34.1141C93.6952 34.059 93.6154 33.9702 93.5714 33.8628C92.5631 31.4167 90.8491 29.3264 88.648 27.8584C86.4469 26.3904 83.8585 25.6112 81.2128 25.6202C78.5671 25.6292 75.984 26.4259 73.793 27.9088C71.6019 29.3918 69.9021 31.4936 68.9104 33.9465C68.8634 34.0588 68.7781 34.1508 68.6697 34.2061C68.5613 34.2615 68.4367 34.2767 68.3182 34.249C66.1309 33.6876 63.8816 33.4043 61.6235 33.4057V33.4057Z" fill="#E6E6E6"/>
<path d="M64.752 75.8914L55.8622 77.9835L55.6562 77.0951C55.3197 75.8547 55.1999 74.5655 55.3022 73.2843C55.4242 72.2551 55.7363 71.2576 56.2227 70.3425C57.3112 68.535 58.5153 66.7998 59.8275 65.1476C60.8511 63.8151 61.263 62.7273 61.057 61.8711C60.9938 61.4974 60.8514 61.1414 60.6394 60.8272C60.4273 60.513 60.1505 60.2478 59.8275 60.0494C59.057 59.6741 58.1711 59.6118 57.3556 59.8756C56.8427 59.9794 56.3568 60.1879 55.9281 60.488C55.4995 60.7882 55.1374 61.1736 54.8644 61.6201C54.3108 62.5277 54.1499 63.9117 54.3752 65.7849L45.0606 66.7763C44.5163 63.697 45.1259 60.5252 46.7729 57.8672C48.4079 55.3309 51.4119 53.5499 55.785 52.5243C59.1838 51.7218 62.0956 51.784 64.5203 52.7109C67.8075 53.9598 69.8288 56.1849 70.5841 59.3863C70.8981 60.7428 70.8313 62.1596 70.391 63.4804C69.9619 64.8837 68.8182 66.7419 66.96 69.055C65.6725 70.6772 64.9151 71.9132 64.6876 72.7629C64.4468 73.7946 64.469 74.8704 64.752 75.8914ZM56.1133 80.3974L65.6403 78.1573L67.5908 86.5514L58.0959 88.7658L56.1133 80.3974Z" fill="#EBEBEB"/>
<path d="M87.3853 57.0883L81.2184 55.2086L81.4051 54.5649C81.6414 53.6892 82.0245 52.8599 82.5381 52.1123C82.978 51.5268 83.5239 51.029 84.1474 50.6446C85.4528 49.9369 86.8032 49.3155 88.1899 48.7843C89.2843 48.3551 89.928 47.8337 90.1211 47.22C90.2156 46.9691 90.2553 46.7008 90.2375 46.4332C90.2198 46.1656 90.1449 45.905 90.0181 45.6687C89.6789 45.1674 89.1606 44.815 88.5697 44.6838C88.2197 44.5671 87.8494 44.5234 87.4818 44.5555C87.1142 44.5876 86.7571 44.6948 86.4326 44.8705C85.5966 45.4439 84.9723 46.2763 84.6559 47.2394L78.592 44.5422C79.3581 42.47 80.8617 40.7532 82.8149 39.7207C84.7117 38.7465 87.175 38.7229 90.2048 39.6499C92.246 40.1635 94.0825 41.2861 95.4704 42.8685C96.2164 43.6983 96.7325 44.7087 96.9673 45.7995C97.2022 46.8903 97.1478 48.0236 96.8094 49.0868C96.5183 50.0264 95.975 50.868 95.2387 51.5201C94.0127 52.4729 92.6352 53.2127 91.1639 53.7088C90.185 54.0329 89.2701 54.5252 88.4603 55.1636C87.9481 55.7062 87.5787 56.3676 87.3853 57.0883ZM80.5103 56.7858L87.1149 58.7942L85.3447 64.6263L78.7337 62.6179L80.5103 56.7858Z" fill="#EBEBEB"/>
<path d="M160.93 261C229.862 261 285.742 257.738 285.742 253.713C285.742 249.689 229.862 246.426 160.93 246.426C91.9991 246.426 36.1193 249.689 36.1193 253.713C36.1193 257.738 91.9991 261 160.93 261Z" fill="#F5F5F5"/>
<path d="M101.457 145.053L100.865 144.802C101.33 143.78 101.645 142.696 101.798 141.583L102.442 141.654C102.281 142.829 101.949 143.974 101.457 145.053V145.053ZM101.206 137.689C100.607 136.351 99.6757 135.189 98.5004 134.313C97.325 133.438 95.9451 132.878 94.4919 132.687L94.5949 132.043C96.1535 132.25 97.6332 132.853 98.8929 133.794C100.153 134.735 101.151 135.983 101.792 137.418L101.206 137.689Z" fill="#FFA914"/>
<path d="M97.8457 151.529L91.4986 154.426L91.2154 153.782C90.7813 152.907 90.5004 151.964 90.385 150.994C90.3238 150.205 90.4089 149.41 90.636 148.651C91.1855 147.14 91.8305 145.665 92.5672 144.235C93.1337 143.09 93.2774 142.212 92.9985 141.603C92.895 141.333 92.7353 141.088 92.5299 140.885C92.3246 140.682 92.0783 140.525 91.8076 140.425C91.1755 140.264 90.5061 140.349 89.9344 140.663C89.567 140.819 89.2353 141.049 88.9597 141.338C88.6841 141.626 88.4704 141.969 88.3315 142.343C88.0525 143.094 88.1384 144.154 88.589 145.523L81.7527 147.66C80.8977 145.433 80.8977 142.967 81.7527 140.74C82.611 138.594 84.5893 136.82 87.6878 135.416C90.1082 134.309 92.2968 133.929 94.2473 134.258C95.4424 134.402 96.5794 134.855 97.5466 135.571C98.5138 136.288 99.278 137.244 99.764 138.345C100.199 139.313 100.359 140.382 100.227 141.435C99.9165 143.08 99.3288 144.66 98.4894 146.109C97.925 147.068 97.5369 148.121 97.3436 149.218C97.3165 150.018 97.4891 150.812 97.8457 151.529ZM92.0522 156.189L98.837 153.138L101.56 159.118L94.7751 162.15L92.0522 156.189Z" fill="#FFA914"/>
<path d="M82.1646 165.839L78.946 170.216L78.534 169.875C77.9063 169.439 77.3558 168.902 76.9054 168.285C76.5634 167.77 76.321 167.196 76.1909 166.592C75.9829 165.355 75.8603 164.105 75.8239 162.852C75.7724 161.854 75.5343 161.204 75.1159 160.921C74.94 160.771 74.7336 160.662 74.5113 160.601C74.2889 160.54 74.0558 160.528 73.8284 160.567C73.3358 160.695 72.9117 161.009 72.644 161.442C72.4522 161.687 72.3128 161.969 72.2342 162.27C72.1556 162.571 72.1395 162.885 72.1869 163.193C72.4105 164.016 72.8964 164.744 73.5709 165.266L69.7086 169.328C68.2784 168.135 67.3368 166.458 67.0629 164.616C66.8269 162.839 67.5006 160.876 69.0842 158.725C70.0663 157.252 71.471 156.11 73.1139 155.449C73.9829 155.09 74.9305 154.964 75.8631 155.084C76.7956 155.204 77.6808 155.565 78.431 156.131C79.097 156.625 79.6138 157.294 79.9245 158.062C80.3376 159.307 80.5379 160.613 80.5167 161.925C80.4945 162.8 80.6297 163.672 80.9158 164.5C81.2136 165.043 81.6429 165.504 82.1646 165.839ZM79.9953 171.22L83.4456 166.534L87.5783 169.579L84.128 174.265L79.9953 171.22Z" fill="#FFA914"/>
<path d="M150.689 251.396C150.157 251.396 149.636 251.251 149.182 250.975C148.728 250.699 148.358 250.303 148.114 249.831C145.539 244.836 142.275 238.972 136.43 232.625C136.094 232.261 135.858 231.815 135.745 231.332C135.632 230.849 135.646 230.345 135.787 229.87C137.956 222.332 141.368 212.026 141.4 211.923C141.509 211.55 141.692 211.204 141.938 210.904C142.184 210.603 142.487 210.356 142.831 210.175C143.175 209.995 143.551 209.886 143.938 209.854C144.324 209.823 144.714 209.869 145.082 209.991C145.45 210.113 145.79 210.308 146.082 210.564C146.373 210.82 146.61 211.132 146.778 211.482C146.947 211.832 147.043 212.212 147.061 212.599C147.079 212.987 147.019 213.374 146.884 213.738C146.852 213.835 143.91 222.711 141.78 229.928C146.322 235.167 150.177 240.964 153.251 247.179C153.477 247.621 153.586 248.113 153.567 248.608C153.548 249.103 153.403 249.586 153.144 250.009C152.886 250.432 152.523 250.782 152.091 251.024C151.659 251.267 151.172 251.395 150.676 251.396H150.689Z" fill="#FFA914"/>
<path d="M155.497 253.713H133.102L144.973 246.98L154.918 247.366L155.497 253.713Z" fill="#263238"/>
<path d="M153.36 226.582C163.553 223.395 169.675 213.963 167.034 205.514C164.392 197.064 153.988 192.798 143.794 195.985C133.601 199.171 127.479 208.604 130.12 217.053C132.762 225.502 143.166 229.768 153.36 226.582Z" fill="#263238"/>
<path d="M97.6204 200.773C96.9539 200.771 96.3087 200.538 95.7943 200.114C95.2798 199.69 94.9276 199.102 94.7973 198.448C94.6671 197.794 94.7667 197.116 95.0794 196.527C95.3921 195.939 95.8986 195.476 96.5132 195.218C97.0134 195.009 97.4527 194.677 97.7903 194.253C98.128 193.828 98.3529 193.326 98.4443 192.791C98.5021 192.163 98.7644 191.57 99.1912 191.105C99.6179 190.64 100.185 190.328 100.807 190.216C101.524 190.07 102.233 189.888 102.931 189.669C106.845 188.53 111.692 187.094 126.948 191.382C141.999 182.968 142.172 167.184 142.172 166.502C142.172 165.737 142.475 165.003 143.014 164.46C143.553 163.918 144.285 163.61 145.05 163.605V163.605C145.812 163.605 146.543 163.906 147.084 164.442C147.626 164.979 147.933 165.707 147.94 166.47C147.94 167.313 147.85 187.127 128.628 197.046C127.973 197.386 127.212 197.46 126.504 197.252C111.956 193.055 107.836 194.253 104.573 195.212L103.684 195.469C103.255 196.607 102.597 197.644 101.751 198.518C100.905 199.391 99.8894 200.082 98.7662 200.548C98.4035 200.7 98.0136 200.777 97.6204 200.773V200.773Z" fill="#263238"/>
<path d="M131.371 180.104C125.893 158.333 111.299 102.175 158.066 98.7436C200.024 95.6601 211.533 151.529 214.333 170.84C215.735 180.612 216.497 190.465 216.612 200.336C216.666 205.329 214.974 210.184 211.829 214.062C208.684 217.941 204.283 220.599 199.386 221.579C176.528 226.226 154.899 226.883 140.325 221.134C138.411 220.362 136.798 218.991 135.727 217.226C134.656 215.462 134.185 213.398 134.383 211.343C134.943 205.112 134.956 194.336 131.371 180.104Z" fill="#FFA914"/>
<path opacity="0.1" d="M214.359 170.853C211.72 152.623 201.343 101.975 165.012 98.7564C162.939 98.5463 160.851 98.9544 159.01 99.9293C157.169 100.904 155.658 102.402 154.667 104.235C153.045 107.376 153.096 111.18 155.523 114.946C163.505 127.389 182.605 170.306 179.721 193.692C178.433 204.333 171.732 212.83 177.538 224.791C184.878 224.148 192.173 223.073 199.386 221.572C204.283 220.593 208.684 217.934 211.829 214.056C214.974 210.177 216.666 205.322 216.612 200.329C216.504 190.465 215.752 180.619 214.359 170.853V170.853Z" fill="black"/>
<path d="M208.077 200.638C208.001 200.638 207.928 200.609 207.874 200.556C207.82 200.503 207.789 200.431 207.787 200.355C207.678 190.497 206.918 180.657 205.515 170.898C198.562 122.838 179.849 98.5377 151.378 100.636C151.34 100.639 151.301 100.634 151.265 100.622C151.229 100.61 151.196 100.59 151.167 100.565C151.138 100.54 151.115 100.51 151.098 100.475C151.081 100.441 151.071 100.404 151.069 100.366C151.065 100.289 151.091 100.214 151.142 100.157C151.192 100.099 151.263 100.063 151.339 100.057C180.146 97.9326 199.084 122.407 206.055 170.815C207.458 180.599 208.219 190.465 208.334 200.349C208.334 200.425 208.304 200.499 208.249 200.554C208.195 200.608 208.121 200.638 208.044 200.638H208.077Z" fill="#263238"/>
<path d="M207.64 228.115C217.833 224.929 223.955 215.496 221.314 207.047C218.672 198.598 208.268 194.332 198.074 197.518C187.881 200.705 181.759 210.137 184.4 218.587C187.042 227.036 197.446 231.302 207.64 228.115Z" fill="#263238"/>
<path d="M209.403 251.396C208.871 251.397 208.35 251.252 207.895 250.976C207.441 250.7 207.072 250.304 206.828 249.831C204.253 244.836 200.989 238.972 195.138 232.625C194.804 232.259 194.569 231.813 194.457 231.331C194.344 230.849 194.357 230.346 194.494 229.87C196.67 222.332 200.075 212.026 200.114 211.923C200.233 211.563 200.422 211.23 200.67 210.944C200.917 210.657 201.219 210.422 201.558 210.252C201.896 210.082 202.265 209.98 202.643 209.952C203.021 209.925 203.401 209.972 203.76 210.091C204.12 210.21 204.453 210.399 204.74 210.647C205.026 210.895 205.261 211.197 205.431 211.535C205.601 211.874 205.703 212.243 205.731 212.621C205.758 212.999 205.711 213.378 205.592 213.738C205.56 213.835 202.624 222.711 200.494 229.928C205.036 235.165 208.889 240.963 211.958 247.179C212.184 247.621 212.293 248.113 212.274 248.608C212.256 249.103 212.11 249.586 211.852 250.009C211.593 250.432 211.231 250.781 210.799 251.024C210.366 251.267 209.879 251.395 209.383 251.396H209.403Z" fill="#FFA914"/>
<path d="M203.339 163.38C202.693 163.38 202.066 163.164 201.557 162.767C201.048 162.369 200.687 161.812 200.532 161.186C200.376 160.559 200.435 159.898 200.699 159.309C200.963 158.72 201.416 158.235 201.987 157.934C202.541 157.638 215.112 150.769 218.64 134.264C210.272 130.762 195.196 122.851 191.9 118.873C191.575 118.488 191.354 118.027 191.256 117.534C190.875 115.157 191.097 112.722 191.9 110.453L190.381 107.518C190.029 106.835 189.963 106.04 190.197 105.308C190.431 104.577 190.947 103.968 191.629 103.617C192.312 103.265 193.107 103.199 193.839 103.433C194.57 103.667 195.179 104.182 195.53 104.865L197.713 109.088C197.947 109.53 198.063 110.026 198.047 110.526C198.031 111.026 197.885 111.514 197.622 111.94C197.033 113.116 196.784 114.434 196.902 115.744C200.616 119.098 215.569 127.035 222.927 129.758C223.551 129.989 224.076 130.429 224.412 131.003C224.749 131.576 224.877 132.249 224.775 132.906C221.511 154.001 205.373 162.691 204.691 163.051C204.273 163.269 203.809 163.382 203.339 163.38Z" fill="#263238"/>
<path d="M194.127 118.474C193.867 118.473 193.613 118.401 193.39 118.268C193.167 118.135 192.984 117.944 192.86 117.715C192.737 117.487 192.677 117.229 192.687 116.97C192.697 116.71 192.776 116.458 192.917 116.24C193.02 116.086 195.402 112.487 199.032 111.515C199.215 111.466 199.406 111.454 199.594 111.478C199.782 111.503 199.963 111.565 200.127 111.659C200.291 111.754 200.435 111.88 200.55 112.03C200.666 112.181 200.75 112.352 200.799 112.535C200.848 112.718 200.861 112.909 200.836 113.097C200.811 113.285 200.75 113.466 200.655 113.63C200.56 113.794 200.434 113.938 200.284 114.053C200.134 114.169 199.962 114.253 199.779 114.302C197.249 114.985 195.35 117.791 195.337 117.817C195.206 118.019 195.027 118.185 194.816 118.299C194.604 118.414 194.368 118.474 194.127 118.474V118.474Z" fill="#263238"/>
<path d="M214.211 253.713H191.816L203.686 246.98L213.632 247.366L214.211 253.713Z" fill="#263238"/>
<path d="M167.314 167.463C175.785 166.713 182.105 159.924 181.43 152.3C180.755 144.675 173.341 139.102 164.87 139.852C156.399 140.603 150.079 147.391 150.754 155.016C151.429 162.64 158.844 168.213 167.314 167.463Z" fill="white"/>
<path d="M164.437 162.438C166.684 161.798 167.56 157.964 166.396 153.875C165.231 149.785 162.465 146.989 160.219 147.629C157.973 148.269 157.096 152.103 158.261 156.192C159.426 160.281 162.191 163.077 164.437 162.438Z" fill="#263238"/>
<path d="M148.571 156.267C158.291 155.018 177.538 149.527 180.712 147.312C178.214 140 166.55 133.743 156.173 137.27C146.769 140.444 148.571 156.267 148.571 156.267Z" fill="#263238"/>
<path d="M150.457 160.966C162.527 158.674 178.214 154.825 182.701 152.359C182.424 160.225 180.126 168.201 167.818 170.898C157.75 173.093 150.457 160.966 150.457 160.966Z" fill="#263238"/>
<path d="M140.515 168.527C144.879 165.639 145.455 158.821 141.8 153.297C138.145 147.773 131.645 145.636 127.28 148.524C122.916 151.412 122.34 158.23 125.995 163.754C129.65 169.278 136.15 171.415 140.515 168.527Z" fill="white"/>
<path d="M134.113 158.726C134.84 162.176 134.21 165.053 132.697 165.163C131.184 165.272 129.369 162.549 128.635 159.099C127.901 155.649 128.538 152.778 130.045 152.662C131.551 152.546 133.379 155.275 134.113 158.726Z" fill="#263238"/>
<path d="M122.146 157.406C128.667 158.172 141.619 157.316 143.769 156.119C142.179 149.919 134.467 142.839 127.457 143.74C121.136 144.551 122.146 157.406 122.146 157.406Z" fill="#263238"/>
<path d="M123.356 161.468C131.461 161.835 142.024 161.629 145.037 160.489C144.76 166.676 143.138 172.572 134.86 172.475C128.101 172.398 123.356 161.468 123.356 161.468Z" fill="#263238"/>
<path d="M170 133.376C162.634 133.416 155.43 131.216 149.343 127.067C148.733 126.605 148.331 125.92 148.226 125.162C148.121 124.404 148.322 123.635 148.783 123.025C149.245 122.414 149.931 122.012 150.689 121.907C151.447 121.802 152.216 122.003 152.826 122.465C159.639 126.908 167.904 128.547 175.897 127.042C176.269 126.971 176.652 126.974 177.023 127.052C177.394 127.129 177.746 127.279 178.059 127.492C178.373 127.705 178.641 127.978 178.848 128.295C179.056 128.612 179.199 128.967 179.27 129.34C179.341 129.712 179.337 130.095 179.26 130.466C179.183 130.837 179.033 131.189 178.82 131.502C178.606 131.815 178.333 132.083 178.016 132.291C177.699 132.499 177.344 132.642 176.972 132.713C174.674 133.15 172.34 133.372 170 133.376V133.376Z" fill="#263238"/>
<path d="M118.368 128.4C117.905 128.398 117.45 128.285 117.041 128.071C116.631 127.857 116.279 127.548 116.013 127.17C115.747 126.792 115.575 126.355 115.512 125.898C115.449 125.44 115.497 124.973 115.651 124.538C117.177 120.276 119.719 117.515 123.195 116.317C129.491 114.148 136.276 118.364 136.566 118.545C137.198 118.96 137.642 119.607 137.803 120.346C137.963 121.086 137.828 121.858 137.425 122.499C137.022 123.139 136.384 123.596 135.648 123.772C134.912 123.947 134.137 123.827 133.489 123.437C132.201 122.619 128.101 120.727 125.056 121.782C123.305 122.394 122.005 123.932 121.084 126.494C120.882 127.053 120.512 127.535 120.026 127.876C119.54 128.217 118.961 128.4 118.368 128.4Z" fill="#263238"/>
<path d="M141.123 177.117C141.042 177.117 140.962 177.103 140.885 177.078C140.666 177.017 140.481 176.871 140.37 176.673C140.259 176.475 140.231 176.241 140.293 176.022C140.549 175.326 140.94 174.687 141.443 174.142C141.947 173.598 142.554 173.158 143.228 172.849C146.537 171.143 151.596 171.497 158.233 173.898C158.341 173.937 158.439 173.997 158.523 174.074C158.607 174.151 158.675 174.244 158.723 174.347C158.771 174.451 158.798 174.563 158.802 174.677C158.807 174.791 158.788 174.905 158.748 175.012C158.71 175.119 158.651 175.217 158.575 175.301C158.498 175.385 158.406 175.453 158.303 175.501C158.199 175.549 158.088 175.576 157.974 175.581C157.861 175.585 157.747 175.567 157.641 175.527C150.026 172.772 146.054 173.364 144.123 174.355C143.159 174.764 142.392 175.533 141.986 176.499C141.93 176.683 141.816 176.843 141.66 176.955C141.504 177.066 141.315 177.123 141.123 177.117V177.117Z" fill="#263238"/>
<path d="M113.861 173.943C103.789 174.838 93.9927 177.715 85.0356 182.408C90.0052 181.468 107.791 203.477 112.362 220.446C120.801 217.324 130.637 215.193 141.123 213.526C134.77 196.036 123.15 176.215 113.861 173.943Z" fill="#FFA914"/>
<path opacity="0.6" d="M113.861 173.943C103.789 174.838 93.9927 177.715 85.0356 182.408C90.0052 181.468 107.791 203.477 112.362 220.446C120.801 217.324 130.637 215.193 141.123 213.526C134.77 196.036 123.15 176.215 113.861 173.943Z" fill="white"/>
<path d="M113.861 173.943C102.867 172.701 85.0163 181.906 85.0163 181.906C81.8556 183.921 82.7117 187.699 84.4369 189.302C86.0913 186.927 104.54 180.747 111.473 179.917C108.029 176.724 111.235 174.381 113.861 173.943Z" fill="#FFA914"/>
<path opacity="0.2" d="M113.861 173.943C102.867 172.701 85.0163 181.906 85.0163 181.906C81.8556 183.921 82.7117 187.699 84.4369 189.302C86.0913 186.927 104.54 180.747 111.473 179.917C108.029 176.724 111.235 174.381 113.861 173.943Z" fill="white"/>
<path d="M97.6268 200.774C97.1475 200.775 96.6752 200.659 96.2518 200.434C95.8285 200.21 95.4671 199.884 95.1999 199.486C93.1079 196.267 94.4146 191.382 94.6978 190.429C94.9391 189.722 95.4445 189.136 96.1081 188.794C96.7717 188.452 97.5421 188.38 98.2578 188.593C98.9734 188.806 99.5789 189.287 99.9473 189.937C100.316 190.586 100.418 191.353 100.234 192.077C99.7639 193.693 99.6674 195.759 100.041 196.325C100.459 196.967 100.605 197.749 100.446 198.499C100.288 199.248 99.8391 199.904 99.1975 200.323C98.7299 200.625 98.1833 200.782 97.6268 200.774V200.774Z" fill="#263238"/>
<path d="M87.7586 74.5654H78.0127V70.1688L87.7586 58.5818H92.4192V70.4198H94.8331V74.5654H92.4192V78.1638H87.7586V74.5654ZM87.7586 70.4198V64.3624L82.6089 70.4198H87.7586Z" fill="#FFA914"/>
<path d="M96.5004 68.4628C96.5004 64.8065 97.1591 62.2466 98.4766 60.7832C99.7941 59.3198 101.8 58.5881 104.495 58.5881C105.589 58.5512 106.68 58.7148 107.714 59.0709C108.469 59.3427 109.161 59.7654 109.748 60.3133C110.241 60.7863 110.66 61.331 110.991 61.929C111.314 62.5553 111.558 63.219 111.718 63.9052C112.081 65.3794 112.261 66.893 112.252 68.4113C112.252 71.9003 111.662 74.4558 110.482 76.078C109.302 77.7002 107.259 78.4963 104.354 78.4662C103.002 78.5223 101.657 78.2576 100.427 77.6938C99.4201 77.1683 98.5713 76.3839 97.9681 75.4214C97.4332 74.5256 97.0667 73.5395 96.8866 72.5118C96.62 71.1788 96.4906 69.8221 96.5004 68.4628V68.4628ZM101.805 68.4628C101.805 70.9175 102.019 72.5912 102.448 73.4838C102.589 73.8728 102.845 74.2098 103.182 74.4501C103.519 74.6904 103.921 74.8226 104.334 74.8292C104.596 74.8342 104.856 74.7859 105.098 74.6875C105.34 74.589 105.56 74.4423 105.744 74.2563C106.205 73.7536 106.51 73.1271 106.62 72.4539C106.849 71.1798 106.944 69.8853 106.903 68.5915C106.903 66.0167 106.691 64.3172 106.259 63.4418C106.103 63.059 105.835 62.7318 105.491 62.5024C105.147 62.273 104.742 62.1517 104.328 62.1543C103.905 62.1429 103.489 62.2674 103.141 62.5095C102.794 62.7516 102.533 63.0986 102.397 63.4997C102.006 64.388 101.809 66.0467 101.805 68.4757V68.4628Z" fill="#FFA914"/>
<path d="M114.434 68.4628C114.434 64.8065 115.093 62.2466 116.411 60.7832C117.728 59.3198 119.734 58.5881 122.429 58.5881C123.523 58.5512 124.614 58.7148 125.648 59.0709C126.403 59.3427 127.095 59.7654 127.682 60.3133C128.177 60.7845 128.596 61.3296 128.925 61.929C129.248 62.5553 129.492 63.219 129.652 63.9052C130.018 65.3792 130.199 66.8927 130.193 68.4113C130.193 71.9003 129.6 74.4558 128.416 76.078C127.232 77.7002 125.195 78.4963 122.307 78.4662C120.956 78.5223 119.61 78.2576 118.38 77.6938C117.374 77.1699 116.527 76.3851 115.928 75.4214C115.388 74.5274 115.019 73.5408 114.84 72.5118C114.567 71.1795 114.431 69.8228 114.434 68.4628V68.4628ZM119.739 68.4628C119.739 70.9175 119.953 72.5912 120.382 73.4838C120.523 73.8728 120.779 74.2098 121.116 74.4501C121.453 74.6904 121.855 74.8226 122.268 74.8292C122.53 74.8342 122.79 74.7859 123.032 74.6875C123.274 74.589 123.494 74.4423 123.678 74.2563C124.139 73.7527 124.445 73.1269 124.56 72.4539C124.786 71.1794 124.881 69.8853 124.843 68.5915C124.843 66.0167 124.629 64.3001 124.2 63.4418C124.041 63.06 123.774 62.7338 123.43 62.5046C123.086 62.2754 122.682 62.1535 122.268 62.1543C121.845 62.1439 121.43 62.2688 121.083 62.5107C120.735 62.7527 120.474 63.0991 120.337 63.4997C119.934 64.388 119.732 66.0467 119.732 68.4757L119.739 68.4628Z" fill="#FFA914"/>
<path d="M142.192 58.9165H158.13V63.017H148.153V66.0811H157.409V70.0078H148.153V73.7993H158.42V78.1573H142.192V58.9165Z" fill="#263238"/>
<path d="M161.703 78.1638V58.9165H171.616C173.037 58.8662 174.458 59.0267 175.833 59.3928C176.791 59.6944 177.619 60.3115 178.182 61.1438C178.608 61.755 178.904 62.4475 179.05 63.178C179.197 63.9084 179.191 64.6612 179.034 65.3895C178.877 66.1178 178.572 66.806 178.138 67.4112C177.703 68.0163 177.148 68.5255 176.508 68.907C175.857 69.2679 175.153 69.5262 174.423 69.6731C174.97 69.8302 175.491 70.0689 175.968 70.3812C176.325 70.6786 176.645 71.0179 176.92 71.3918C177.239 71.7621 177.519 72.1632 177.757 72.5891L180.635 78.1638H173.914L170.734 72.2801C170.484 71.7168 170.117 71.2124 169.659 70.7996C169.232 70.5043 168.724 70.349 168.204 70.3554H167.677V78.1638H161.703ZM167.677 66.7184H170.187C170.717 66.6764 171.243 66.5881 171.758 66.4545C172.144 66.3796 172.488 66.1639 172.723 65.8494C173.012 65.4697 173.15 64.9966 173.111 64.5212C173.072 64.0457 172.858 63.6016 172.511 63.2745C171.843 62.8755 171.064 62.7018 170.29 62.7788H167.677V66.7184Z" fill="#263238"/>
<path d="M182.617 78.1638V58.9165H192.531C193.952 58.8657 195.373 59.0263 196.747 59.3929C197.706 59.6944 198.534 60.3115 199.097 61.1438C199.521 61.7553 199.815 62.4474 199.961 63.1772C200.107 63.9071 200.102 64.6591 199.946 65.3868C199.79 66.1145 199.486 66.8024 199.053 67.4079C198.62 68.0135 198.067 68.5237 197.429 68.9071C196.776 69.2689 196.07 69.5273 195.337 69.6731C196.364 69.8945 197.261 70.5122 197.835 71.3918C198.153 71.7621 198.433 72.1632 198.672 72.5891L201.549 78.1638H194.829L191.649 72.2802C191.398 71.7168 191.032 71.2124 190.574 70.7996C190.147 70.5043 189.638 70.3491 189.119 70.3554H188.61V78.1638H182.617ZM188.61 66.7184H191.121C191.651 66.6764 192.177 66.5881 192.692 66.4545C193.079 66.3826 193.424 66.1663 193.657 65.8494C193.946 65.4698 194.084 64.9966 194.045 64.5212C194.006 64.0458 193.792 63.6017 193.445 63.2745C192.777 62.8738 191.998 62.7 191.224 62.7788H188.61V66.7184Z" fill="#263238"/>
<path d="M202.244 68.5529C202.244 65.4116 203.12 62.9654 204.871 61.2145C206.622 59.4636 209.059 58.5881 212.184 58.5881C215.389 58.5881 217.859 59.4464 219.593 61.163C221.327 62.8796 222.185 65.2893 222.168 68.392C222.256 70.3111 221.873 72.2225 221.054 73.9602C220.318 75.3834 219.175 76.5553 217.771 77.3269C216.116 78.156 214.277 78.5482 212.428 78.4663C210.577 78.5293 208.736 78.1751 207.04 77.4299C205.583 76.7076 204.376 75.5637 203.577 74.1469C202.64 72.435 202.18 70.5032 202.244 68.5529V68.5529ZM208.192 68.5529C208.192 70.497 208.555 71.8939 209.28 72.7436C209.662 73.1428 210.121 73.4605 210.628 73.6776C211.136 73.8946 211.683 74.0066 212.235 74.0066C212.787 74.0066 213.334 73.8946 213.842 73.6776C214.349 73.4605 214.808 73.1428 215.19 72.7436C215.889 71.911 216.241 70.409 216.245 68.2375C216.245 66.4308 215.878 65.1069 215.145 64.2658C214.773 63.8496 214.313 63.5216 213.799 63.3055C213.284 63.0895 212.728 62.9909 212.171 63.0169C211.624 62.9981 211.08 63.1043 210.58 63.3274C210.08 63.5505 209.638 63.8846 209.287 64.3044C208.566 65.212 208.192 66.6218 208.192 68.5787V68.5529Z" fill="#263238"/>
<path d="M225.476 78.1638V58.9165H235.383C236.804 58.8657 238.225 59.0263 239.6 59.3929C240.559 59.6925 241.388 60.3101 241.949 61.1438C242.567 62.0628 242.88 63.1527 242.844 64.2594C242.87 65.2267 242.634 66.1831 242.162 67.0274C241.705 67.8032 241.058 68.45 240.282 68.9071C239.63 69.2679 238.927 69.5263 238.196 69.6731C238.744 69.8302 239.265 70.0689 239.741 70.3812C240.097 70.6802 240.416 71.0193 240.694 71.3918C241.01 71.7618 241.289 72.163 241.524 72.5891L244.408 78.1638H237.688L234.508 72.2802C234.254 71.7183 233.889 71.2144 233.433 70.7996C233.003 70.5042 232.493 70.349 231.971 70.3554H231.45V78.1638H225.476ZM231.45 66.7184H233.954C234.487 66.6766 235.014 66.5883 235.531 66.4545C235.917 66.3796 236.261 66.1639 236.497 65.8494C236.745 65.5317 236.877 65.1387 236.87 64.7357C236.886 64.4673 236.841 64.1987 236.739 63.9501C236.636 63.7016 236.479 63.4794 236.278 63.3003C235.611 62.8996 234.832 62.7257 234.057 62.8046H231.45V66.7184Z" fill="#263238"/>
<path d="M104.469 48.2111V33.8818H109.851C110.749 33.8478 111.645 33.9967 112.484 34.3196C113.13 34.5927 113.675 35.0608 114.042 35.6585C114.405 36.2233 114.602 36.8794 114.608 37.5511C114.609 38.1643 114.435 38.7651 114.106 39.2827C113.734 39.8439 113.212 40.2898 112.6 40.5701C113.389 40.7702 114.092 41.2222 114.602 41.8575C115.069 42.4827 115.314 43.2464 115.297 44.0269C115.303 44.6758 115.157 45.3173 114.872 45.9001C114.633 46.4234 114.274 46.8823 113.823 47.2391C113.351 47.5771 112.817 47.8178 112.252 47.9472C111.494 48.1206 110.718 48.2006 109.941 48.1853L104.469 48.2111ZM106.401 39.8942H109.503C110.111 39.9205 110.72 39.8642 111.312 39.7268C111.743 39.6177 112.126 39.3687 112.4 39.0187C112.655 38.6509 112.783 38.2105 112.767 37.7635C112.785 37.3098 112.666 36.8613 112.426 36.476C112.204 36.1145 111.855 35.8483 111.447 35.7293C110.732 35.5646 109.998 35.4975 109.265 35.5298H106.401V39.8942ZM106.401 46.5181H109.973C110.403 46.5298 110.834 46.5082 111.261 46.4537C111.647 46.3936 112.019 46.2603 112.355 46.0611C112.663 45.8632 112.914 45.588 113.082 45.2628C113.276 44.8894 113.374 44.4733 113.366 44.0526C113.378 43.5573 113.234 43.0706 112.954 42.6622C112.681 42.2619 112.279 41.9684 111.814 41.8318C111.131 41.6443 110.424 41.5618 109.716 41.5872H106.401V46.5181Z" fill="#263238"/>
<path d="M124.47 46.924C123.911 47.4187 123.274 47.8168 122.584 48.102C121.966 48.3303 121.312 48.4458 120.653 48.4432C119.703 48.5075 118.764 48.2083 118.026 47.6063C117.726 47.3391 117.488 47.0092 117.329 46.64C117.17 46.2707 117.094 45.8711 117.106 45.4692C117.101 44.997 117.212 44.5308 117.428 44.1112C117.645 43.6916 117.961 43.3313 118.348 43.0617C118.741 42.7965 119.177 42.6005 119.636 42.4823C120.151 42.3614 120.673 42.2732 121.2 42.2184C122.264 42.1212 123.317 41.9185 124.341 41.6133C124.341 41.3687 124.341 41.2206 124.341 41.1498C124.371 40.8769 124.342 40.6008 124.256 40.34C124.171 40.0791 124.031 39.8395 123.846 39.6371C123.272 39.1983 122.557 38.9853 121.837 39.0384C121.195 38.9925 120.555 39.1454 120.003 39.4761C119.527 39.8746 119.205 40.4249 119.088 41.0339L117.37 40.8022C117.485 40.1538 117.749 39.5411 118.142 39.0127C118.563 38.5214 119.114 38.1597 119.732 37.9698C120.493 37.7125 121.292 37.5884 122.095 37.6029C122.822 37.5817 123.547 37.6862 124.238 37.9119C124.707 38.0657 125.129 38.3385 125.461 38.7037C125.737 39.0532 125.924 39.4638 126.008 39.901C126.083 40.4383 126.113 40.9809 126.099 41.5232V43.8728C126.07 44.9083 126.106 45.9446 126.208 46.9755C126.285 47.4137 126.435 47.8359 126.652 48.2243H124.818C124.624 47.8155 124.506 47.3749 124.47 46.924V46.924ZM124.322 42.9909C123.391 43.3149 122.425 43.5309 121.444 43.6346C120.92 43.6906 120.404 43.8073 119.906 43.9822C119.624 44.1031 119.383 44.3018 119.211 44.5551C119.011 44.8703 118.93 45.2466 118.983 45.6161C119.036 45.9856 119.22 46.3239 119.5 46.5699C119.948 46.9102 120.504 47.0771 121.065 47.0399C121.696 47.0491 122.32 46.8938 122.874 46.5893C123.379 46.3153 123.787 45.8899 124.039 45.3726C124.255 44.811 124.352 44.2101 124.322 43.6088V42.9909Z" fill="#263238"/>
<path d="M135.574 48.2113V46.9239C135.273 47.4196 134.844 47.8249 134.332 48.0968C133.82 48.3688 133.244 48.4973 132.665 48.4688C131.853 48.4716 131.06 48.2317 130.386 47.78C129.673 47.3048 129.112 46.6344 128.77 45.8489C128.372 44.9634 128.176 44.0001 128.197 43.0294C128.185 42.063 128.36 41.1033 128.712 40.2034C129.019 39.4139 129.563 38.739 130.27 38.2723C130.962 37.8341 131.768 37.6102 132.587 37.6285C133.169 37.6164 133.745 37.7515 134.261 38.0212C134.733 38.2717 135.143 38.626 135.458 39.0576V33.9078H137.209V48.2113H135.574ZM130.032 43.0616C129.952 44.1235 130.251 45.1794 130.875 46.042C131.108 46.3472 131.408 46.5952 131.752 46.767C132.095 46.9388 132.474 47.0299 132.858 47.0333C133.235 47.0347 133.608 46.9502 133.948 46.7863C134.288 46.6224 134.587 46.3832 134.821 46.087C135.421 45.2534 135.707 44.2338 135.626 43.2096C135.716 42.1023 135.427 40.9971 134.808 40.0747C134.57 39.7629 134.263 39.5106 133.912 39.3375C133.56 39.1644 133.173 39.0752 132.78 39.0769C132.407 39.0796 132.039 39.1673 131.704 39.3335C131.369 39.4997 131.077 39.74 130.849 40.0361C130.243 40.9233 129.955 41.9897 130.032 43.0616V43.0616Z" fill="#263238"/>
<path d="M145.797 48.2114V33.8822H152.156C153.144 33.8395 154.131 33.9702 155.073 34.2684C155.742 34.532 156.304 35.0125 156.669 35.6331C157.068 36.2834 157.275 37.0331 157.268 37.796C157.28 38.2693 157.198 38.7402 157.028 39.182C156.858 39.6238 156.603 40.0278 156.276 40.3709C155.436 41.153 154.351 41.6214 153.206 41.6969C153.625 41.8825 154.018 42.1251 154.371 42.4179C154.977 42.9917 155.507 43.6407 155.948 44.3491L158.439 48.2114H156.051L154.152 45.231C153.598 44.3684 153.141 43.7118 152.787 43.2547C152.519 42.8857 152.193 42.5619 151.822 42.2956C151.555 42.1197 151.262 41.9891 150.953 41.9094C150.604 41.8558 150.25 41.8342 149.897 41.845H147.695V48.2114H145.797ZM147.695 40.1971H151.777C152.465 40.2245 153.153 40.1353 153.811 39.9331C154.269 39.7761 154.662 39.4731 154.931 39.0706C155.18 38.6875 155.312 38.2401 155.311 37.7831C155.319 37.4667 155.257 37.1525 155.129 36.863C155.001 36.5736 154.81 36.3162 154.57 36.1094C153.897 35.6209 153.069 35.3922 152.24 35.4657H147.695V40.1971Z" fill="#263238"/>
<path d="M167.129 44.8833L168.951 45.1022C168.718 46.0799 168.16 46.9493 167.368 47.5676C166.366 48.2223 165.176 48.5263 163.983 48.4319C162.79 48.3376 161.662 47.8502 160.776 47.0462C159.834 45.9575 159.356 44.5435 159.443 43.1067C159.351 41.6267 159.835 40.1684 160.795 39.0383C161.241 38.5598 161.784 38.1828 162.388 37.9329C162.993 37.683 163.644 37.566 164.297 37.59C164.933 37.5688 165.566 37.6842 166.153 37.9285C166.741 38.1728 167.269 38.5403 167.702 39.0061C168.638 40.118 169.11 41.5469 169.022 42.9972C169.022 43.1002 169.022 43.2611 169.022 43.4671H161.297C161.28 44.4264 161.607 45.3602 162.218 46.1C162.494 46.397 162.831 46.632 163.205 46.7896C163.578 46.9471 163.982 47.0236 164.387 47.014C164.98 47.0323 165.562 46.8535 166.042 46.5055C166.554 46.0821 166.932 45.5184 167.129 44.8833V44.8833ZM161.336 42.0316H167.129C167.115 41.3277 166.891 40.644 166.486 40.0683C166.226 39.7409 165.893 39.4786 165.515 39.3021C165.136 39.1255 164.721 39.0396 164.303 39.0512C163.928 39.039 163.553 39.1029 163.202 39.2389C162.852 39.375 162.532 39.5804 162.263 39.843C161.691 40.4296 161.364 41.2123 161.349 42.0316H161.336Z" fill="#263238"/>
<path d="M177.783 52.2088V47.1234C177.482 47.5286 177.089 47.8572 176.637 48.0826C176.151 48.3327 175.613 48.4629 175.066 48.4624C174.459 48.4635 173.859 48.3316 173.309 48.0758C172.758 47.8199 172.271 47.4465 171.88 46.9818C170.935 45.8515 170.456 44.4036 170.541 42.9328C170.527 41.9694 170.713 41.0137 171.088 40.1262C171.407 39.3496 171.957 38.6908 172.665 38.2401C173.342 37.8151 174.126 37.5918 174.925 37.5963C175.527 37.5787 176.123 37.7171 176.655 37.9979C177.187 38.2788 177.638 38.6926 177.963 39.1992V37.8345H179.547V52.2088H177.783ZM172.356 43.0036C172.277 44.0725 172.573 45.1357 173.193 46.0098C173.432 46.3197 173.738 46.5712 174.088 46.7452C174.438 46.9192 174.823 47.0111 175.215 47.014C175.587 47.0111 175.955 46.924 176.289 46.759C176.624 46.594 176.917 46.3555 177.146 46.0613C177.755 45.2215 178.044 44.1922 177.963 43.1581C178.041 42.0503 177.739 40.949 177.107 40.0361C176.874 39.7187 176.571 39.4591 176.222 39.2772C175.872 39.0953 175.486 38.9959 175.092 38.9868C174.716 38.9888 174.346 39.0782 174.011 39.2481C173.676 39.4179 173.385 39.6634 173.161 39.9652C172.555 40.857 172.271 41.9288 172.356 43.0036Z" fill="#263238"/>
<path d="M189.112 48.2114V46.6986C188.762 47.2523 188.275 47.7058 187.697 48.0149C187.119 48.3241 186.472 48.4782 185.817 48.4624C185.225 48.4676 184.639 48.3469 184.098 48.1084C183.634 47.9242 183.227 47.6198 182.92 47.2265C182.645 46.8427 182.459 46.4031 182.373 45.9391C182.286 45.3943 182.249 44.8426 182.263 44.2911V37.8539H184.027V43.6474C184.007 44.2696 184.044 44.8922 184.137 45.5078C184.228 45.9464 184.478 46.336 184.838 46.6021C185.228 46.8738 185.696 47.0116 186.171 46.9948C186.694 46.996 187.208 46.8559 187.658 46.5892C188.102 46.3422 188.449 45.9518 188.643 45.482C188.865 44.8302 188.964 44.1424 188.932 43.4543V37.8346H190.69V48.2114H189.112Z" fill="#263238"/>
<path d="M200.564 44.8833L202.386 45.1021C202.147 46.0806 201.585 46.9495 200.79 47.5676C199.788 48.2223 198.598 48.5262 197.405 48.4319C196.212 48.3375 195.084 47.8502 194.198 47.0462C193.256 45.9574 192.778 44.5434 192.865 43.1066C192.773 41.6279 193.255 40.1706 194.211 39.0383C194.658 38.5603 195.203 38.1837 195.808 37.9339C196.413 37.684 197.065 37.5667 197.719 37.5899C198.355 37.5687 198.988 37.6841 199.575 37.9284C200.163 38.1728 200.691 38.5402 201.124 39.0061C202.06 40.118 202.532 41.5468 202.444 42.9972C202.444 43.1002 202.444 43.2611 202.444 43.4671H194.719C194.717 44.429 195.062 45.3594 195.691 46.087C195.967 46.3847 196.303 46.6202 196.677 46.7778C197.052 46.9354 197.455 47.0115 197.861 47.0011C198.453 47.0194 199.035 46.8405 199.515 46.4926C200.011 46.0675 200.376 45.509 200.564 44.8833V44.8833ZM194.771 42.0316H200.564C200.55 41.3276 200.326 40.6439 199.921 40.0682C199.66 39.7416 199.328 39.4798 198.949 39.3034C198.57 39.1269 198.156 39.0406 197.738 39.0512C197.361 39.0381 196.986 39.1015 196.634 39.2376C196.282 39.3737 195.961 39.5796 195.691 39.8429C195.121 40.4305 194.797 41.2132 194.784 42.0316H194.771Z" fill="#263238"/>
<path d="M203.892 45.1279L205.63 44.8511C205.689 45.4699 205.982 46.043 206.448 46.454C206.987 46.8556 207.65 47.0539 208.321 47.014C208.961 47.0634 209.599 46.8881 210.124 46.5184C210.304 46.3831 210.45 46.2082 210.552 46.0073C210.653 45.8064 210.707 45.5848 210.709 45.3597C210.713 45.1718 210.667 44.9863 210.576 44.8215C210.486 44.6567 210.354 44.5183 210.194 44.4198C209.62 44.1492 209.014 43.9482 208.392 43.8212C207.474 43.6202 206.576 43.338 205.708 42.9779C205.249 42.7731 204.86 42.4385 204.589 42.0153C204.317 41.592 204.176 41.0987 204.182 40.5961C204.179 40.1467 204.29 39.7039 204.504 39.3087C204.706 38.9205 204.995 38.5837 205.347 38.3238C205.69 38.0922 206.068 37.9182 206.467 37.8088C206.964 37.6694 207.477 37.6 207.993 37.6028C208.722 37.5886 209.449 37.7064 210.136 37.9504C210.676 38.1291 211.15 38.4627 211.501 38.9096C211.839 39.388 212.06 39.9393 212.145 40.5189L210.42 40.7506C210.398 40.5013 210.326 40.259 210.209 40.0378C210.092 39.8167 209.931 39.6213 209.737 39.4632C209.273 39.1392 208.712 38.9826 208.147 39.019C207.542 38.9656 206.936 39.1053 206.416 39.4181C206.261 39.5225 206.134 39.6623 206.044 39.8257C205.955 39.9892 205.906 40.1716 205.901 40.358C205.894 40.5908 205.969 40.8185 206.113 41.0017C206.293 41.2149 206.526 41.377 206.789 41.4716C206.963 41.536 207.484 41.684 208.347 41.9158C209.232 42.1349 210.102 42.4079 210.954 42.7333C211.42 42.927 211.821 43.2483 212.113 43.6603C212.405 44.1069 212.551 44.6332 212.531 45.1666C212.53 45.7584 212.353 46.3365 212.023 46.8274C211.645 47.3725 211.114 47.7936 210.497 48.0376C209.805 48.33 209.059 48.4747 208.308 48.4624C207.213 48.536 206.125 48.239 205.218 47.6191C204.478 46.9857 204.004 46.0959 203.892 45.1279V45.1279Z" fill="#263238"/>
<path d="M218.46 46.6536L218.717 48.2049C218.28 48.306 217.833 48.36 217.385 48.3659C216.871 48.3948 216.358 48.2882 215.898 48.0569C215.569 47.8819 215.306 47.6037 215.151 47.2651C214.967 46.5882 214.896 45.8859 214.939 45.1859V39.1993H213.651V37.8346H214.939V35.2597L216.689 34.204V37.8346H218.46V39.1993H216.689V45.276C216.671 45.6006 216.701 45.9261 216.78 46.2416C216.844 46.3849 216.949 46.5059 217.082 46.5892C217.27 46.6821 217.478 46.7243 217.687 46.7115C217.946 46.7094 218.204 46.6901 218.46 46.6536V46.6536Z" fill="#263238"/>
</svg>
